<?xml version="1.0" encoding="UTF-8"?>
<svg xmlns="http://www.w3.org/2000/svg" xmlns:xlink="http://www.w3.org/1999/xlink" width="52px" height="64px" viewBox="0 0 52 63" version="1.1">
<g id="surface1">
<path style=" stroke:none;fill-rule:nonzero;fill:rgb(0%,0%,0%);fill-opacity:1;" d="M 50.34375 21.476562 C 49.976562 21.761719 43.433594 25.394531 43.433594 33.476562 C 43.433594 42.828125 51.757812 46.136719 52.007812 46.21875 C 51.96875 46.417969 50.683594 50.746094 47.617188 55.15625 C 44.882812 59.039062 42.027344 62.910156 37.683594 62.910156 C 33.339844 62.910156 32.222656 60.421875 27.207031 60.421875 C 22.320312 60.421875 20.582031 62.992188 16.609375 62.992188 C 12.636719 62.992188 9.863281 59.402344 6.675781 54.992188 C 2.984375 49.8125 0 41.769531 0 34.132812 C 0 21.886719 8.074219 15.390625 16.023438 15.390625 C 20.246094 15.390625 23.765625 18.125 26.414062 18.125 C 28.9375 18.125 32.875 15.226562 37.675781 15.226562 C 39.5 15.226562 46.039062 15.390625 50.34375 21.476562 Z M 35.398438 10.042969 C 37.382812 7.71875 38.789062 4.492188 38.789062 1.265625 C 38.789062 0.820312 38.75 0.367188 38.667969 0 C 35.433594 0.121094 31.589844 2.125 29.269531 4.777344 C 27.449219 6.816406 25.75 10.042969 25.75 13.3125 C 25.75 13.804688 25.832031 14.292969 25.871094 14.453125 C 26.078125 14.488281 26.410156 14.535156 26.742188 14.535156 C 29.640625 14.535156 33.289062 12.617188 35.398438 10.042969 Z M 35.398438 10.042969 "/>
</g>
</svg>
