<?xml version="1.0" encoding="UTF-8"?>
<svg xmlns="http://www.w3.org/2000/svg" xmlns:xlink="http://www.w3.org/1999/xlink" width="52px" height="53px" viewBox="0 0 52 53" version="1.1">
<g id="surface1">
<path style=" stroke:none;fill-rule:nonzero;fill:rgb(25.882353%,52.156863%,95.686275%);fill-opacity:1;" d="M 26.515625 21.683594 L 26.515625 31.945312 L 40.785156 31.945312 C 40.160156 35.246094 38.277344 38.039062 35.457031 39.917969 L 44.0625 46.59375 C 49.078125 41.96875 51.96875 35.171875 51.96875 27.101562 C 51.96875 25.222656 51.800781 23.417969 51.488281 21.683594 Z M 26.515625 21.683594 "/>
<path style=" stroke:none;fill-rule:nonzero;fill:rgb(20.392157%,65.882353%,32.54902%);fill-opacity:1;" d="M 11.65625 31.542969 L 9.714844 33.027344 L 2.84375 38.378906 C 7.207031 47.027344 16.148438 53 26.515625 53 C 33.675781 53 39.675781 50.640625 44.0625 46.59375 L 35.457031 39.917969 C 33.09375 41.507812 30.082031 42.472656 26.515625 42.472656 C 19.621094 42.472656 13.761719 37.824219 11.667969 31.558594 Z M 11.65625 31.542969 "/>
<path style=" stroke:none;fill-rule:nonzero;fill:rgb(98.431373%,73.72549%,1.960784%);fill-opacity:1;" d="M 2.84375 14.625 C 1.035156 18.1875 0 22.210938 0 26.5 C 0 30.789062 1.035156 34.8125 2.84375 38.375 C 2.84375 38.402344 11.667969 31.535156 11.667969 31.535156 C 11.136719 29.945312 10.824219 28.257812 10.824219 26.5 C 10.824219 24.742188 11.136719 23.054688 11.667969 21.464844 Z M 2.84375 14.625 "/>
<path style=" stroke:none;fill-rule:nonzero;fill:rgb(91.764706%,26.27451%,20.784314%);fill-opacity:1;" d="M 26.515625 10.550781 C 30.421875 10.550781 33.890625 11.902344 36.664062 14.503906 L 44.257812 6.914062 C 39.652344 2.625 33.675781 0 26.515625 0 C 16.152344 0 7.207031 5.949219 2.84375 14.625 L 11.667969 21.464844 C 13.765625 15.203125 19.621094 10.550781 26.515625 10.550781 Z M 26.515625 10.550781 "/>
</g>
</svg>
